<?xml version="1.0" encoding="UTF-8" standalone="no"?>
<!-- Created with Inkscape (http://www.inkscape.org/) -->

<svg
   width="64"
   height="64"
   viewBox="0 0 16.933333 16.933334"
   version="1.1"
   id="svg1"
   xmlns="http://www.w3.org/2000/svg"
   xmlns:svg="http://www.w3.org/2000/svg">
  <defs
     id="defs1" />
  <g
     id="layer1">
    <g
       id="g2">
      <circle
         r="8.4666662"
         cy="8.4666672"
         cx="8.466711"
         id="circle82933-4-4-6"
         style="color:#000000;clip-rule:nonzero;display:inline;overflow:visible;visibility:visible;isolation:auto;mix-blend-mode:normal;color-interpolation:sRGB;color-interpolation-filters:linearRGB;solid-color:#000000;solid-opacity:1;fill:#7a9ab0;fill-opacity:1;fill-rule:nonzero;stroke:none;stroke-width:0.240885;stroke-linecap:butt;stroke-linejoin:miter;stroke-miterlimit:4;stroke-dasharray:none;stroke-dashoffset:0;stroke-opacity:1;color-rendering:auto;image-rendering:auto;shape-rendering:auto;text-rendering:auto;enable-background:accumulate" />
      <g
         id="g1">
        <path
           id="path264475-1-3-8-0-9-3-1-5"
           d="M 9.3525649,8.8701851 A 1.3958872,1.3958872 0 0 1 7.95664,10.266186 1.3958872,1.3958872 0 0 1 6.5608294,8.8701851 1.3958872,1.3958872 0 0 1 7.95664,7.4743745 1.3958872,1.3958872 0 0 1 9.3525649,8.8701851 Z"
           style="color:#000000;clip-rule:nonzero;display:inline;overflow:visible;visibility:visible;isolation:auto;mix-blend-mode:normal;color-interpolation:sRGB;color-interpolation-filters:linearRGB;solid-color:#000000;solid-opacity:1;fill:#ffffff;fill-opacity:1;fill-rule:nonzero;stroke:none;stroke-width:1.48617;stroke-linecap:butt;stroke-linejoin:round;stroke-miterlimit:4;stroke-dasharray:none;stroke-dashoffset:0;stroke-opacity:1;color-rendering:auto;image-rendering:auto;shape-rendering:auto;text-rendering:auto;enable-background:accumulate" />
        <path
           id="path264477-0-1-5-4-9-0-4-3"
           d="M 9.6939937,5.7258017 A 0.84498732,0.84498732 0 0 1 8.8489455,6.5709452 0.84498732,0.84498732 0 0 1 8.0039734,5.7258017 0.84498732,0.84498732 0 0 1 8.8489455,4.8808487 0.84498732,0.84498732 0 0 1 9.6939937,5.7258017 Z"
           style="color:#000000;clip-rule:nonzero;display:inline;overflow:visible;visibility:visible;isolation:auto;mix-blend-mode:normal;color-interpolation:sRGB;color-interpolation-filters:linearRGB;solid-color:#000000;solid-opacity:1;fill:#ffffff;fill-opacity:1;fill-rule:nonzero;stroke:none;stroke-width:1.48617;stroke-linecap:butt;stroke-linejoin:round;stroke-miterlimit:4;stroke-dasharray:none;stroke-dashoffset:0;stroke-opacity:1;color-rendering:auto;image-rendering:auto;shape-rendering:auto;text-rendering:auto;enable-background:accumulate" />
        <path
           id="path264479-3-8-0-6-3-9-6-5"
           d="m 12.498301,8.1054226 a 0.84498732,0.84498732 0 0 1 -0.844953,0.844953 0.84498732,0.84498732 0 0 1 -0.844953,-0.844953 0.84498732,0.84498732 0 0 1 0.844953,-0.8449531 0.84498732,0.84498732 0 0 1 0.844953,0.8449531 z"
           style="color:#000000;clip-rule:nonzero;display:inline;overflow:visible;visibility:visible;isolation:auto;mix-blend-mode:normal;color-interpolation:sRGB;color-interpolation-filters:linearRGB;solid-color:#000000;solid-opacity:1;fill:#ffffff;fill-opacity:1;fill-rule:nonzero;stroke:none;stroke-width:1.48617;stroke-linecap:butt;stroke-linejoin:round;stroke-miterlimit:4;stroke-dasharray:none;stroke-dashoffset:0;stroke-opacity:1;color-rendering:auto;image-rendering:auto;shape-rendering:auto;text-rendering:auto;enable-background:accumulate" />
        <path
           id="path264481-0-9-9-2-6-2-9-6"
           d="m 11.096204,11.20733 a 0.84498732,0.84498732 0 0 1 -0.845067,0.844953 0.84498732,0.84498732 0 0 1 -0.844953,-0.844953 0.84498732,0.84498732 0 0 1 0.844953,-0.844953 0.84498732,0.84498732 0 0 1 0.845067,0.844953 z"
           style="color:#000000;clip-rule:nonzero;display:inline;overflow:visible;visibility:visible;isolation:auto;mix-blend-mode:normal;color-interpolation:sRGB;color-interpolation-filters:linearRGB;solid-color:#000000;solid-opacity:1;fill:#ffffff;fill-opacity:1;fill-rule:nonzero;stroke:none;stroke-width:1.48617;stroke-linecap:butt;stroke-linejoin:round;stroke-miterlimit:4;stroke-dasharray:none;stroke-dashoffset:0;stroke-opacity:1;color-rendering:auto;image-rendering:auto;shape-rendering:auto;text-rendering:auto;enable-background:accumulate" />
        <path
           id="path264483-4-6-6-6-0-5-4-2-9"
           d="M 6.3372102,10.824853 A 0.84498732,0.84498732 0 0 1 5.4922382,11.669806 0.84498732,0.84498732 0 0 1 4.6471899,10.824853 0.84498732,0.84498732 0 0 1 5.4922382,9.9799002 0.84498732,0.84498732 0 0 1 6.3372102,10.824853 Z"
           style="color:#000000;clip-rule:nonzero;display:inline;overflow:visible;visibility:visible;isolation:auto;mix-blend-mode:normal;color-interpolation:sRGB;color-interpolation-filters:linearRGB;solid-color:#000000;solid-opacity:1;fill:#ffffff;fill-opacity:1;fill-rule:nonzero;stroke:none;stroke-width:1.48617;stroke-linecap:butt;stroke-linejoin:round;stroke-miterlimit:4;stroke-dasharray:none;stroke-dashoffset:0;stroke-opacity:1;color-rendering:auto;image-rendering:auto;shape-rendering:auto;text-rendering:auto;enable-background:accumulate" />
        <path
           id="path264485-4-4-3-7-5-4-2-9"
           d="m 6.1247339,6.3635165 a 0.84498732,0.84498732 0 0 1 -0.8449721,0.844953 0.84498732,0.84498732 0 0 1 -0.844953,-0.844953 0.84498732,0.84498732 0 0 1 0.844953,-0.844953 0.84498732,0.84498732 0 0 1 0.8449721,0.844953 z"
           style="color:#000000;clip-rule:nonzero;display:inline;overflow:visible;visibility:visible;isolation:auto;mix-blend-mode:normal;color-interpolation:sRGB;color-interpolation-filters:linearRGB;solid-color:#000000;solid-opacity:1;fill:#ffffff;fill-opacity:1;fill-rule:nonzero;stroke:none;stroke-width:1.48617;stroke-linecap:butt;stroke-linejoin:round;stroke-miterlimit:4;stroke-dasharray:none;stroke-dashoffset:0;stroke-opacity:1;color-rendering:auto;image-rendering:auto;shape-rendering:auto;text-rendering:auto;enable-background:accumulate" />
        <path
           style="color:#000000;fill:#ffffff;fill-rule:evenodd;stroke-width:1;-inkscape-stroke:none"
           d="M 6.004629,6.8261835 5.7888574,7.0567551 6.8305249,8.0315178 7.0462965,7.8008509 Z"
           id="path264487-4-3-8-5-0-0-2-1-1" />
        <path
           style="color:#000000;fill:#ffffff;fill-rule:evenodd;stroke-width:1;-inkscape-stroke:none"
           d="M 10.794442,8.1226607 9.2914601,8.4333276 9.3546983,8.7420897 10.85768,8.4314228 Z"
           id="path264489-4-3-5-6-2-5-6-2" />
        <path
           style="color:#000000;fill:#ffffff;fill-rule:evenodd;stroke-width:1;-inkscape-stroke:none"
           d="M 9.0477933,9.7558048 8.8227169,9.9771383 9.5462984,10.713806 9.7713748,10.494282 Z"
           id="path264491-7-3-6-9-9-9-4-7" />
        <path
           style="color:#000000;fill:#ffffff;fill-rule:evenodd;stroke-width:1;-inkscape-stroke:none"
           d="M 6.7654201,9.6144713 6.0567148,10.176186 6.2520292,10.423615 6.9607345,9.8619001 Z"
           id="path264493-6-8-1-8-4-4-1-0" />
        <path
           style="color:#000000;fill:#ffffff;fill-rule:evenodd;stroke-width:1;-inkscape-stroke:none"
           d="M 8.4674309,6.4950404 8.1865545,7.4846602 8.4897547,7.5703745 8.7706311,6.5826595 Z"
           id="path264495-3-6-1-7-3-6-2-9" />
      </g>
    </g>
  </g>
</svg>
