<?xml version="1.0" encoding="UTF-8" standalone="no"?>
<!-- Created with Inkscape (http://www.inkscape.org/) -->

<svg
   width="24"
   height="24"
   viewBox="0 0 6.3499999 6.35"
   version="1.1"
   id="svg129802"
   xmlns="http://www.w3.org/2000/svg"
   xmlns:svg="http://www.w3.org/2000/svg">
  <defs
     id="defs129799" />
  <g
     id="layer1">
    <path
       id="path264475-1-3-8-0-5-7-6-1-3"
       d="M 3.8728014,3.4928743 A 1.099256,1.099256 0 0 1 2.7735308,4.59222 1.099256,1.099256 0 0 1 1.6743351,3.4928743 1.099256,1.099256 0 0 1 2.7735308,2.3936786 1.099256,1.099256 0 0 1 3.8728014,3.4928743 Z"
       style="color:#000000;clip-rule:nonzero;display:inline;overflow:visible;visibility:visible;isolation:auto;mix-blend-mode:normal;color-interpolation:sRGB;color-interpolation-filters:linearRGB;solid-color:#000000;solid-opacity:1;fill:#ffffff;fill-opacity:1;fill-rule:nonzero;stroke:none;stroke-width:1.48618;stroke-linecap:butt;stroke-linejoin:round;stroke-miterlimit:4;stroke-dasharray:none;stroke-dashoffset:0;stroke-opacity:1;color-rendering:auto;image-rendering:auto;shape-rendering:auto;text-rendering:auto;enable-background:accumulate" />
    <path
       id="path264477-0-1-5-4-2-8-5-0-0"
       d="M 4.1416754,1.016684 A 0.66542439,0.66542439 0 0 1 3.476203,1.6822314 0.66542439,0.66542439 0 0 1 2.8108056,1.016684 0.66542439,0.66542439 0 0 1 3.476203,0.35128666 0.66542439,0.66542439 0 0 1 4.1416754,1.016684 Z"
       style="color:#000000;clip-rule:nonzero;display:inline;overflow:visible;visibility:visible;isolation:auto;mix-blend-mode:normal;color-interpolation:sRGB;color-interpolation-filters:linearRGB;solid-color:#000000;solid-opacity:1;fill:#ffffff;fill-opacity:1;fill-rule:nonzero;stroke:none;stroke-width:1.48618;stroke-linecap:butt;stroke-linejoin:round;stroke-miterlimit:4;stroke-dasharray:none;stroke-dashoffset:0;stroke-opacity:1;color-rendering:auto;image-rendering:auto;shape-rendering:auto;text-rendering:auto;enable-background:accumulate" />
    <path
       id="path264479-3-8-0-6-9-4-6-3-4"
       d="M 6.3500417,2.8906267 A 0.66542439,0.66542439 0 0 1 5.6846443,3.5560241 0.66542439,0.66542439 0 0 1 5.0192469,2.8906267 0.66542439,0.66542439 0 0 1 5.6846443,2.2252293 0.66542439,0.66542439 0 0 1 6.3500417,2.8906267 Z"
       style="color:#000000;clip-rule:nonzero;display:inline;overflow:visible;visibility:visible;isolation:auto;mix-blend-mode:normal;color-interpolation:sRGB;color-interpolation-filters:linearRGB;solid-color:#000000;solid-opacity:1;fill:#ffffff;fill-opacity:1;fill-rule:nonzero;stroke:none;stroke-width:1.48618;stroke-linecap:butt;stroke-linejoin:round;stroke-miterlimit:4;stroke-dasharray:none;stroke-dashoffset:0;stroke-opacity:1;color-rendering:auto;image-rendering:auto;shape-rendering:auto;text-rendering:auto;enable-background:accumulate" />
    <path
       id="path264481-0-9-9-2-0-5-9-0-4"
       d="M 5.245896,5.3333671 A 0.66542439,0.66542439 0 0 1 4.5804236,5.9987644 0.66542439,0.66542439 0 0 1 3.9150263,5.3333671 0.66542439,0.66542439 0 0 1 4.5804236,4.6679697 0.66542439,0.66542439 0 0 1 5.245896,5.3333671 Z"
       style="color:#000000;clip-rule:nonzero;display:inline;overflow:visible;visibility:visible;isolation:auto;mix-blend-mode:normal;color-interpolation:sRGB;color-interpolation-filters:linearRGB;solid-color:#000000;solid-opacity:1;fill:#ffffff;fill-opacity:1;fill-rule:nonzero;stroke:none;stroke-width:1.48618;stroke-linecap:butt;stroke-linejoin:round;stroke-miterlimit:4;stroke-dasharray:none;stroke-dashoffset:0;stroke-opacity:1;color-rendering:auto;image-rendering:auto;shape-rendering:auto;text-rendering:auto;enable-background:accumulate" />
    <path
       id="path264483-4-6-6-6-2-0-3-4-4"
       d="M 1.4982358,5.0321682 A 0.66542439,0.66542439 0 0 1 0.83276339,5.6975656 0.66542439,0.66542439 0 0 1 0.16729101,5.0321682 0.66542439,0.66542439 0 0 1 0.83276339,4.3667709 0.66542439,0.66542439 0 0 1 1.4982358,5.0321682 Z"
       style="color:#000000;clip-rule:nonzero;display:inline;overflow:visible;visibility:visible;isolation:auto;mix-blend-mode:normal;color-interpolation:sRGB;color-interpolation-filters:linearRGB;solid-color:#000000;solid-opacity:1;fill:#ffffff;fill-opacity:1;fill-rule:nonzero;stroke:none;stroke-width:1.48618;stroke-linecap:butt;stroke-linejoin:round;stroke-miterlimit:4;stroke-dasharray:none;stroke-dashoffset:0;stroke-opacity:1;color-rendering:auto;image-rendering:auto;shape-rendering:auto;text-rendering:auto;enable-background:accumulate" />
    <path
       id="path264485-4-4-3-7-8-3-7-4-4"
       d="M 1.3309114,1.5188821 A 0.66542439,0.66542439 0 0 1 0.66543905,2.1842794 0.66542439,0.66542439 0 0 1 4.1666017e-5,1.5188821 0.66542439,0.66542439 0 0 1 0.66543905,0.85348468 0.66542439,0.66542439 0 0 1 1.3309114,1.5188821 Z"
       style="color:#000000;clip-rule:nonzero;display:inline;overflow:visible;visibility:visible;isolation:auto;mix-blend-mode:normal;color-interpolation:sRGB;color-interpolation-filters:linearRGB;solid-color:#000000;solid-opacity:1;fill:#ffffff;fill-opacity:1;fill-rule:nonzero;stroke:none;stroke-width:1.48618;stroke-linecap:butt;stroke-linejoin:round;stroke-miterlimit:4;stroke-dasharray:none;stroke-dashoffset:0;stroke-opacity:1;color-rendering:auto;image-rendering:auto;shape-rendering:auto;text-rendering:auto;enable-background:accumulate" />
    <path
       style="color:#000000;fill:#ffffff;fill-rule:evenodd;stroke-width:1;-inkscape-stroke:none"
       d="M 1.2363368,1.8832306 1.0663875,2.0648049 1.8866592,2.8324269 2.0566086,2.6507776 Z"
       id="path264487-4-3-8-5-3-6-4-4-7" />
    <path
       style="color:#000000;fill:#ffffff;fill-rule:evenodd;stroke-width:1;-inkscape-stroke:none"
       d="m 5.008297,2.9042016 -1.1836454,0.2446491 0.0495,0.243149 1.1836454,-0.244649 z"
       id="path264489-4-3-5-6-8-1-5-4-6" />
    <path
       style="color:#000000;fill:#ffffff;fill-rule:evenodd;stroke-width:1;-inkscape-stroke:none"
       d="M 3.6328024,4.1902966 3.4555031,4.3645959 4.0253508,4.9447186 4.2025751,4.7718443 Z"
       id="path264491-7-3-6-9-0-0-2-7-3" />
    <path
       style="color:#000000;fill:#ffffff;fill-rule:evenodd;stroke-width:1;-inkscape-stroke:none"
       d="M 1.8354344,4.078997 1.2772866,4.5213453 1.431111,4.7161945 1.9892588,4.2738462 Z"
       id="path264493-6-8-1-8-40-6-5-6-1" />
    <path
       style="color:#000000;fill:#ffffff;fill-rule:evenodd;stroke-width:1;-inkscape-stroke:none"
       d="M 3.1757542,1.6224567 2.95458,2.4017786 l 0.2387241,0.0675 0.2212491,-0.7778219 z"
       id="path264495-3-6-1-7-9-3-4-3-7" />
  </g>
</svg>
