<?xml version="1.0" encoding="UTF-8" standalone="no"?>
<!-- Created with Inkscape (http://www.inkscape.org/) -->

<svg
   width="28.836563mm"
   height="5.291667mm"
   viewBox="0 0 28.836563 5.291667"
   version="1.1"
   id="svg1"
   inkscape:version="1.4.2 (1:1.4.2+202505120738+ebf0e940d0)"
   sodipodi:docname="webthings-wordmark.svg"
   xmlns:inkscape="http://www.inkscape.org/namespaces/inkscape"
   xmlns:sodipodi="http://sodipodi.sourceforge.net/DTD/sodipodi-0.dtd"
   xmlns="http://www.w3.org/2000/svg"
   xmlns:svg="http://www.w3.org/2000/svg">
  <sodipodi:namedview
     id="namedview1"
     pagecolor="#ffffff"
     bordercolor="#666666"
     borderopacity="1.0"
     inkscape:showpageshadow="2"
     inkscape:pageopacity="0.0"
     inkscape:pagecheckerboard="0"
     inkscape:deskcolor="#d1d1d1"
     inkscape:document-units="mm"
     inkscape:zoom="1.9830139"
     inkscape:cx="122.2886"
     inkscape:cy="128.84428"
     inkscape:window-width="1280"
     inkscape:window-height="987"
     inkscape:window-x="0"
     inkscape:window-y="0"
     inkscape:window-maximized="1"
     inkscape:current-layer="layer1" />
  <defs
     id="defs1">
    <rect
       x="412.22714"
       y="-530.59381"
       width="1744.3799"
       height="530.59381"
       id="rect3" />
  </defs>
  <g
     inkscape:label="Layer 1"
     inkscape:groupmode="layer"
     id="layer1"
     transform="translate(-34.395833,-67.204168)">
    <path
       d="m 1176.152,-505.43871 h -3.7345 l -12.4718,39.10658 h -5.7779 l -11.2035,-32.27173 h -0.3523 l -10.8512,32.27173 h -5.8484 l -13.2469,-39.10658 h -3.9459 v -6.69392 h 17.4042 v 6.69392 h -5.0733 l 7.8918,26.21198 h 0.3523 l 9.0896,-26.21198 h -4.0163 v -6.69392 h 17.3337 v 6.69392 h -3.7345 l 9.0896,26.56429 h 0.3524 l 7.1871,-26.56429 h -5.637 v -6.69392 h 17.1928 z m 28.537,29.45324 q -0.4227,4.15728 -4.0868,7.25762 -3.664,3.10034 -10.0761,3.10034 -6.9053,0 -11.3444,-4.01635 -4.4391,-4.08681 -4.4391,-11.97859 0,-7.25762 4.0163,-12.11952 4.0868,-4.86189 11.3444,-4.86189 6.553,0 10.358,3.94588 3.8754,3.87543 3.9459,9.86473 0,1.97294 -0.4228,4.22774 h -21.3501 q 0.6342,8.87825 8.4555,8.87825 3.6641,0 5.2142,-1.76156 1.6207,-1.76156 2.1139,-3.7345 z m -8.0327,-9.23056 q 0.2819,-2.81849 -1.3387,-5.28467 -1.5502,-2.53664 -5.2847,-2.53664 -3.3822,0 -5.1438,2.25479 -1.7615,2.25479 -2.1843,5.56652 z m 46.2937,2.32526 q 0,6.69392 -3.5231,11.97859 -3.5232,5.28467 -10.8512,5.28467 -7.469,0 -10.4989,-5.63698 -0.1409,0.84555 -0.3523,2.46618 -0.2114,1.62063 -0.3523,2.46618 h -7.469 q 0.4227,-2.32526 0.775,-4.72097 0.3524,-2.46618 0.3524,-4.79144 v -33.18775 h -4.721 v -5.7779 h 12.19 v 23.11163 q 1.4092,-2.81849 3.9458,-4.8619 2.6072,-2.0434 6.9758,-2.0434 5.9893,0 9.7238,4.15727 3.805,4.08682 3.805,11.55582 z m -7.8213,0.63416 q 0,-5.00282 -2.2548,-7.60993 -2.2548,-2.67757 -5.7779,-2.67757 -4.0164,0 -6.2712,2.95942 -2.2548,2.95942 -2.3252,6.41207 v 2.25479 q 0,3.87543 2.2548,6.62346 2.3252,2.67757 6.0597,2.67757 3.9459,0 6.1302,-2.88896 2.1844,-2.88895 2.1844,-7.75085 z m 50.169,-14.93801 -6.7644,0.5637 -1.4092,-8.80779 h -8.9487 v 32.41266 h 7.6803 v 6.69392 h -22.9002 v -6.69392 h 7.3985 v -32.41266 h -9.0191 l -1.4093,8.80779 -6.6939,-0.5637 1.4092,-14.93801 h 39.2475 z m 41.0795,30.86249 h -16.9814 v -5.77791 h 4.721 v -12.40136 q 0,-4.50959 -1.6911,-6.34161 -1.6911,-1.90248 -4.5801,-1.90248 -3.4526,0 -5.496,2.25479 -2.0434,2.25479 -2.1844,5.49606 v 12.8946 h 4.6505 v 5.77791 h -16.9109 v -5.77791 h 4.721 v -36.92225 h -4.721 v -5.7779 h 12.2604 v 22.0547 q 3.2413,-5.84837 10.4989,-5.84837 4.5801,0 7.7509,2.74803 3.2412,2.74803 3.2412,8.5964 v 15.14939 h 4.721 z m 7.3985,-38.19057 v -8.31455 h 7.6804 v 8.31455 z m 12.6128,38.19057 h -16.911 v -5.77791 h 4.721 v -20.01129 h -5.0028 v -5.84837 h 12.4718 v 25.85966 h 4.721 z m 41.8546,0 h -16.911 v -5.77791 h 4.6506 v -12.40136 q 0,-4.50959 -1.6207,-6.34161 -1.6206,-1.90248 -4.5096,-1.90248 -3.5935,0 -5.7074,2.32525 -2.0434,2.32526 -2.1139,5.70745 v 12.61275 h 4.721 v 5.77791 h -16.9814 v -5.77791 h 4.7209 v -20.01129 h -4.9323 v -5.84837 h 12.4718 v 5.14374 q 3.3117,-5.7779 10.4989,-5.7779 4.5096,0 7.7509,2.74803 3.2412,2.74803 3.2412,8.5964 v 15.14939 h 4.721 z m 39.2474,-25.7892 h -4.5801 v 24.59134 q 0,7.53947 -4.2277,12.18998 -4.1573,4.65051 -12.4718,4.65051 -4.9324,0 -9.2306,-2.11387 -4.2982,-2.11387 -6.0597,-7.25761 l 5.8483,-3.17081 q 2.9594,6.48253 9.5829,6.48253 3.9459,0 6.4825,-2.81849 2.5367,-2.81849 2.5367,-8.0327 v -4.72098 q -1.3388,2.53665 -3.8755,4.36867 -2.4661,1.76156 -6.8348,1.76156 -5.5665,0 -9.6533,-3.87543 -4.0164,-3.94589 -4.0164,-11.41489 0,-6.76439 3.5936,-11.90813 3.664,-5.21421 10.5693,-5.21421 7.1872,0 10.2171,5.56652 v -4.93236 h 12.1195 z m -12.1195,10.71027 v -2.53665 q 0,-3.94588 -2.2548,-6.27114 -2.2548,-2.32526 -5.637,-2.32526 -3.9459,0 -6.0598,2.88896 -2.1138,2.81849 -2.1138,7.68039 0,5.00282 2.1138,7.39854 2.1139,2.32526 5.3552,2.32526 4.0163,0 6.2711,-2.8185 2.3253,-2.81849 2.3253,-6.3416 z m 42.7706,5.63698 q 0,4.93236 -4.0869,7.53947 -4.0163,2.6071 -10.2874,2.6071 -3.3822,0 -6.8349,-0.77508 -3.3822,-0.77509 -6.1302,-2.32526 l 1.1274,-8.17362 5.9188,0.56369 -0.07,4.08682 q 1.3387,0.5637 2.8184,0.77508 1.5502,0.21139 2.7481,0.21139 2.8889,0 5.0028,-0.98647 2.1843,-1.05694 2.1843,-3.10034 0,-1.97295 -1.9729,-2.8185 -1.9025,-0.84554 -4.7914,-1.26832 -2.889,-0.49323 -5.778,-1.26832 -2.8889,-0.84555 -4.8619,-2.67757 -1.9024,-1.90248 -1.9024,-5.63698 0,-5.49606 4.1572,-7.53947 4.2278,-2.0434 8.8783,-2.0434 6.1302,0 11.5558,2.88895 l 0.7751,7.82132 -5.9188,0.70462 -0.6342,-4.72098 q -2.748,-1.05693 -5.5665,-1.05693 -2.1844,0 -3.7345,0.91601 -1.4797,0.84555 -1.4797,2.74803 0,1.97294 1.9024,2.74803 1.9025,0.77508 4.721,1.26832 2.8185,0.42277 5.637,1.26832 2.8185,0.77509 4.721,2.67757 1.9025,1.83202 1.9025,5.56652 z"
       id="text2"
       style="font-weight:600;font-size:70.4623px;line-height:1.25;font-family:'Zilla Slab';-inkscape-font-specification:'Zilla Slab, Semi-Bold';text-align:center;white-space:pre;fill:#ffffff"
       transform="matrix(0.0825265,0,0,0.0825265,-57.102909,109.68965)"
       aria-label="WebThings" />
  </g>
</svg>
